<svg height='100px' width='100px'  fill="#000000" xmlns="http://www.w3.org/2000/svg" xmlns:xlink="http://www.w3.org/1999/xlink" version="1.1" x="0px" y="0px" viewBox="0 0 100 100" style="enable-background:new 0 0 100 100;" xml:space="preserve"><g><path d="M70.5,80.3c0,3.2-2.6,5.7-5.7,5.7H37.3c-3.2,0-5.7-2.6-5.7-5.7V34.5h-4.9v45.8c0,5.9,4.8,10.6,10.6,10.6h27.5   c5.9,0,10.6-4.8,10.6-10.6V34.5h-4.9V80.3z"></path><path d="M63.8,24.8v-5.2c0-3.5-2.8-6.3-6.3-6.3H44.5c-3.5,0-6.3,2.8-6.3,6.3v5.2H23.1v4.9h55.8v-4.9H63.8z M43.1,19.7   c0-0.8,0.6-1.4,1.4-1.4h12.9c0.8,0,1.4,0.6,1.4,1.4v5.2H43.1V19.7z"></path><rect x="56.6" y="35.5" width="4.9" height="41.3"></rect><rect x="40.6" y="35.5" width="4.9" height="41.3"></rect></g></svg>