<svg xmlns="http://www.w3.org/2000/svg" xmlns:xlink="http://www.w3.org/1999/xlink" width="100" height="100" viewBox="0 0 100 100"><g><g transform="translate(50 50) scale(0.69 0.69) rotate(0) translate(-50 -50)" style="fill:#721c24"><svg fill="#721c24" xmlns="http://www.w3.org/2000/svg" xmlns:xlink="http://www.w3.org/1999/xlink" version="1.1" x="0px" y="0px" viewBox="0 0 100 100" enable-background="new 0 0 100 100" xml:space="preserve"><path d="M90.236,75.891L56.053,16.683c-1.251-2.166-3.562-3.5-6.063-3.5s-4.812,1.334-6.063,3.5L9.498,76.317  c-1.25,2.166-1.25,4.834,0,7c1.251,2.166,3.562,3.5,6.063,3.5H84.42c0.007,0,0.015,0,0.02,0c3.866,0,7-3.134,7-7  C91.439,78.362,90.996,77.01,90.236,75.891z M50,33.777c2.16,0,3.912,1.751,3.912,3.912l-1,23.331c-0.1,2.11-1.74,2.912-2.912,2.912  c-1.313,0-2.797-0.692-2.912-2.912l-1-23.331C46.088,35.528,47.84,33.777,50,33.777z M53.53,75.76c-0.921,0.93-2.211,1.46-3.53,1.46  c-1.32,0-2.61-0.53-3.54-1.46S45,73.54,45,72.22c0-1.32,0.53-2.6,1.46-3.53c0.93-0.93,2.22-1.47,3.54-1.47  c1.319,0,2.609,0.54,3.53,1.47C54.47,69.62,55,70.91,55,72.22C55,73.54,54.47,74.83,53.53,75.76z"></path></svg></g></g></svg>